<?xml version="1.0" encoding="UTF-8"?>
<!DOCTYPE svg PUBLIC "-//W3C//DTD SVG 1.1//EN" "http://www.w3.org/Graphics/SVG/1.1/DTD/svg11.dtd">
<svg xmlns="http://www.w3.org/2000/svg" xml:space="preserve" width="3.21106in" height="3.21106in" version="1.1" style="shape-rendering:geometricPrecision; text-rendering:geometricPrecision; image-rendering:optimizeQuality; fill-rule:evenodd; clip-rule:evenodd" viewBox="0 0 3211 3211" xmlns:xlink="http://www.w3.org/1999/xlink">
 <defs>
  <style type="text/css">
   <![CDATA[
    .darkestBlue {fill:#104378}
    .darkerBlue {fill:#145593}
    .darkBlue {fill:#165EA0}
    .strongBlue {fill:#1B70BB}
    .brightBlue {fill:#2491EB}
    .softBlue {fill:#6DB7F2}
   ]]>
  </style>
</defs>
  <g id="_661400448">
    <path class="darkestBlue" d="M2432 341l836 421L3708 0z" />
    <path class="darkerBlue" d="M1994 1099l438-758 836 421z" />
    <path class="darkBlue" d="M1431 610l423 732 578-1001z" />
    <path class="darkestBlue" d="M0 0l1244 333-899 265z" />
    <path class="softBlue" d="M1854 1974v1237l-637-1103z" />
    <path class="brightBlue" d="M1854 1974v1237l797-1381z" />
    <path class="darkBlue" d="M3268 762l-843 223 226 845z" />
    <path class="strongBlue" d="M2425 985l226 845-797 144z" />
    <path class="darkerBlue" d="M345 598l611-180-227 845z" />
    <path class="darkBlue" d="M956 418l-227 845h714z" />
    <path class="strongBlue" d="M729 1263h714l-226 845z" />
    <path class="brightBlue" d="M1443 1263l-226 845 637-134z" />
  </g>
</svg>
