<?xml version="1.0" encoding="UTF-8"?>
<!DOCTYPE svg PUBLIC "-//W3C//DTD SVG 1.1//EN" "http://www.w3.org/Graphics/SVG/1.1/DTD/svg11.dtd">
<!-- Creator: CorelDRAW X7 -->
<svg xmlns="http://www.w3.org/2000/svg" xml:space="preserve" width="11.5992in" height="3.21106in" version="1.1" style="shape-rendering:geometricPrecision; text-rendering:geometricPrecision; image-rendering:optimizeQuality; fill-rule:evenodd; clip-rule:evenodd"
viewBox="0 0 11599 3211"
 xmlns:xlink="http://www.w3.org/1999/xlink">
 <defs>
  <style type="text/css">
   <![CDATA[
    .fil0 {fill:#104378}
    .fil1 {fill:#145593}
    .fil2 {fill:#165EA0}
    .fil5 {fill:#1B70BB}
    .fil4 {fill:#2491EB}
    .fil6 {fill:#425059}
    .fil3 {fill:#6DB7F2}
   ]]>
  </style>
 </defs>
 <g id="Layer_x0020_1">
  <metadata id="CorelCorpID_0Corel-Layer"/>
  <g id="_661400448">
   <polygon class="fil0" points="2432,341 3268,762 3708,0 "/>
   <polygon class="fil1" points="1994,1099 2432,341 3268,762 "/>
   <polygon class="fil2" points="1431,610 1854,1342 2432,341 "/>
   <polygon class="fil0" points="0,0 1244,333 345,598 "/>
   <polygon class="fil3" points="1854,1974 1854,3211 1217,2108 "/>
   <polygon class="fil4" points="1854,1974 1854,3211 2651,1830 "/>
   <polygon class="fil2" points="3268,762 2425,985 2651,1830 "/>
   <polygon class="fil5" points="2425,985 2651,1830 1854,1974 "/>
   <polygon class="fil1" points="345,598 956,418 729,1263 "/>
   <polygon class="fil2" points="956,418 729,1263 1443,1263 "/>
   <polygon class="fil5" points="729,1263 1443,1263 1217,2108 "/>
   <polygon class="fil4" points="1443,1263 1217,2108 1854,1974 "/>
   <path class="fil6" d="M5327 767c-113,-112 -262,-169 -410,-169 -391,0 -585,287 -585,599 0,290 169,564 585,564 194,0 331,-75 440,-199l0 -467 -474 0 0 187 283 0 0 196c-87,69 -163,88 -249,88 -275,0 -381,-188 -381,-369 0,-228 144,-408 381,-408 96,0 207,39 281,110l129 -132zm1167 954l-335 -377c210,-43 279,-196 279,-349 0,-192 -137,-366 -398,-367 -175,1 -351,0 -526,0l0 1107 208 0 0 -369 201 0 323 369 248 0 0 -14zm-454 -899c131,0 190,89 190,178 0,89 -57,178 -190,178l-318 0 0 -356 318 0zm1364 708l-621 0 0 -250 599 0 0 -194 -599 0 0 -256 621 0 0 -202 -828 0c0,369 0,739 0,1107l828 0 0 -205zm921 -215l-542 -687 -169 0 0 1107 209 0 0 -746 581 746 0 0 130 0 0 -1107 -209 0 0 687zm820 -687c-136,0 -298,0 -434,0l0 1107c136,0 298,0 434,0 387,0 558,-282 553,-563 -5,-274 -174,-544 -553,-544zm-227 197l227 0c240,0 341,173 346,345 5,181 -95,365 -346,365l-227 0 0 -710zm1743 705l-621 0 0 -250 598 0 0 -194 -598 0 0 -256 621 0 0 -202 -828 0c0,369 0,739 0,1107l828 0 0 -205zm161 -902l0 1107 777 0 0 -192 -569 0 0 -915 -208 0z"/>
   <path class="fil6" d="M4760 2459c-36,36 -90,56 -137,56 -136,0 -188,-95 -189,-186 -1,-92 56,-190 189,-190 47,0 96,16 132,51l69 -66c-57,-56 -127,-84 -201,-84 -199,0 -292,146 -291,289 1,143 87,283 291,283 79,0 152,-26 208,-82l-71 -71zm645 -419c-190,0 -282,145 -282,289 0,144 89,283 282,283 193,0 280,-142 281,-284 2,-143 -92,-288 -281,-288zm0 94c129,0 181,103 179,196 -1,90 -50,187 -179,187 -129,0 -178,-96 -180,-186 -3,-93 51,-197 180,-197zm976 257l-269 -341 -84 0 0 549 104 0 0 -370 288 370 0 0 64 0 0 -549 -103 0 0 341zm885 -250c-41,-85 -130,-109 -215,-109 -101,1 -212,47 -212,160 0,123 103,153 215,166 73,8 127,29 127,81 0,59 -61,82 -126,82 -67,0 -130,-27 -154,-87l-87 45c41,100 127,134 239,134 122,0 231,-52 231,-174 0,-131 -107,-161 -221,-175 -66,-8 -122,-21 -122,-69 0,-41 36,-73 113,-73 60,0 111,30 130,61l82 -42zm734 -89l0 314c0,94 -48,151 -134,151 -85,0 -142,-52 -142,-151l0 -314 -102 0 0 314c0,165 112,245 243,245 138,0 238,-83 238,-245l0 -314 -103 0zm462 -2l0 549 385 0 0 -95 -282 0 0 -454 -103 0zm777 549l103 0 0 -455 174 0 0 -94c-159,0 -293,0 -451,0l0 94 174 0 0 455zm702 0l0 -549 -103 0 0 549 103 0zm715 -208l-268 -341 -84 0 0 549 103 0 0 -370 288 370 0 0 65 0 0 -549 -104 0 0 341zm928 -272c-56,-56 -130,-84 -203,-84 -194,0 -290,143 -290,297 0,144 84,280 290,280 96,0 164,-37 218,-99l0 -231 -235 0 0 92 140 0 0 98c-43,34 -80,43 -123,43 -137,0 -189,-93 -189,-183 0,-113 71,-202 189,-202 47,0 102,20 139,55l64 -66z"/>
  </g>
 </g>
</svg>
