<?xml version="1.0" standalone="no"?>
<!DOCTYPE svg PUBLIC "-//W3C//DTD SVG 20010904//EN"
 "http://www.w3.org/TR/2001/REC-SVG-20010904/DTD/svg10.dtd">
<svg version="1.0" xmlns="http://www.w3.org/2000/svg"
 width="700.000000pt" height="700.000000pt" viewBox="0 0 700.000000 700.000000"
 preserveAspectRatio="xMidYMid meet">
<metadata>
Created by potrace 1.11, written by Peter Selinger 2001-2013
</metadata>
<g transform="translate(0.000000,700.000000) scale(0.100000,-0.100000)"
fill="#000000" stroke="none">
<path d="M1037 5532 c20 -37 72 -127 115 -201 43 -73 78 -135 78 -137 0 -2 15
-27 33 -56 19 -29 47 -78 64 -108 17 -30 88 -154 158 -275 70 -121 137 -238
150 -260 87 -155 336 -582 345 -592 5 -7 10 -15 10 -18 0 -3 58 -105 129 -228
71 -122 138 -238 149 -257 11 -19 61 -107 112 -195 51 -88 100 -173 110 -190
9 -16 77 -133 150 -260 73 -126 142 -245 152 -264 11 -19 59 -102 107 -185
119 -205 389 -672 417 -721 12 -22 58 -102 102 -178 l80 -138 123 213 c267
463 435 753 694 1203 54 94 123 213 153 265 30 52 63 109 72 125 9 17 108 188
220 380 111 193 225 391 253 440 28 50 55 92 59 93 5 2 8 8 8 12 0 5 72 134
160 286 88 152 157 281 153 287 -3 6 -2 7 4 4 5 -3 20 14 34 38 13 24 47 83
75 132 136 236 168 291 192 333 14 25 44 77 67 115 22 39 44 77 48 85 4 8 18
33 32 55 13 22 43 74 66 115 23 41 51 88 61 103 11 16 18 31 14 34 -3 3 -48
-6 -101 -21 -52 -15 -103 -29 -112 -30 -10 -2 -38 -9 -63 -16 -25 -7 -49 -13
-55 -14 -5 -2 -28 -8 -50 -14 -40 -12 -786 -212 -960 -257 -49 -13 -142 -38
-205 -55 -63 -17 -122 -33 -130 -35 -8 -2 -15 -4 -15 -5 0 -1 -9 -3 -20 -5
-12 -2 -122 -32 -245 -65 -124 -34 -232 -63 -240 -65 -8 -2 -50 -13 -92 -24
-43 -12 -113 -30 -155 -42 -43 -11 -85 -22 -93 -24 -79 -19 -507 -138 -512
-143 -3 -4 15 -43 41 -87 26 -44 59 -100 73 -125 14 -25 92 -160 173 -300 81
-140 158 -273 170 -295 13 -22 41 -71 63 -108 l39 -69 96 164 95 163 283 76
c156 42 286 75 288 73 2 -2 -9 -25 -24 -51 -15 -26 -39 -68 -52 -92 -14 -24
-60 -103 -102 -175 -43 -73 -80 -138 -84 -146 -4 -8 -15 -28 -25 -45 -11 -16
-72 -122 -137 -235 -65 -113 -159 -275 -208 -360 -128 -222 -126 -218 -124
-222 1 -2 -1 -1 -4 2 -4 3 -75 124 -159 270 -84 146 -174 301 -200 345 -26 44
-108 186 -182 315 -75 129 -229 397 -343 595 -115 198 -222 385 -238 415 -17
30 -41 71 -54 90 -41 61 -40 61 161 121 102 29 183 55 182 57 -4 3 -204 59
-241 66 -11 3 -78 21 -150 40 -224 61 -466 126 -580 156 -60 16 -171 45 -245
65 -74 20 -142 38 -150 40 -8 2 -49 13 -90 25 -41 12 -91 26 -110 30 -19 4
-50 13 -68 18 l-32 11 37 -67z"/>
</g>
</svg>
